<?xml version="1.0" encoding="utf-8"?>
<!-- Generator: Adobe Illustrator 27.9.0, SVG Export Plug-In . SVG Version: 6.00 Build 0)  -->
<svg version="1.1" id="Layer_1" xmlns="http://www.w3.org/2000/svg" xmlns:xlink="http://www.w3.org/1999/xlink" x="0px" y="0px"
	 viewBox="0 0 1381 337" style="enable-background:new 0 0 1381 337;" xml:space="preserve">
<style type="text/css">
	.st0{opacity:0.3;fill:none;stroke:#F47A16;stroke-miterlimit:10;}
	.st1{opacity:0.3;fill:none;stroke:#47C0DD;stroke-miterlimit:10;}
</style>
<polyline class="st0" points="0,210 7.5,210 7.5,132.5 16,132.5 16,155 22,155 22,228 29.9,228 29.9,190.9 38,190.9 38,203.6 
	46,203.6 46,88.8 53.6,88.8 53.6,186 61,186 61,243 68.5,243 68.5,113.5 77,113.5 77,80.4 85,80.4 85,159 91,159 91,179 99,179 
	99,175.5 107,175.5 107,286 114.5,286 114.5,240.9 123,240.9 123,274.6 130,274.6 130,293.8 137.7,293.8 137.7,105 146,105 
	146,313.7 152.1,313.7 152.1,259 160,259 160,311.1 168,311.1 168,262.8 175,262.8 175,228 183,228 183,81 191,81 191,88.1 
	198,88.1 198,174 207,174 207,102.5 214,102.5 214,281 222,281 222,264 229,264 229,195.6 236,195.6 236,222 244,222 244,145 
	253,145 253,166.2 259,166.2 259,239 267,239 267,201.3 275,201.3 275,214.9 282,214.9 282,99 291,99 291,197.1 298,197.1 298,253 
	306,253 306,123.1 314,123.1 314,90.4 322,90.4 322,168.3 329,168.3 329,187.4 336,187.4 336,184.8 345,184.8 345,293 352,293 
	352,249.8 359,249.8 359,282.6 367,282.6 367,301.4 375,301.4 375,112.3 383,112.3 383,317.6 389.1,317.6 389.1,266.9 398,266.9 
	398,315.2 406,315.2 406,268.6 412,268.6 412,234 421,234 421,87.8 428,87.8 428,93 435,93 435,179 444,179 444,106.9 451,106.9 
	451,285 459,285 459,267.6 467,267.6 467,199.7 473,199.7 473,225.5 481,225.5 481,148 489,148 489,169.8 496,169.8 496,241.6 
	504,241.6 504,204.3 512,204.3 512,217 519,217 519,101 527,101 527,198.1 535,198.1 535,253.8 542,253.8 542,124.4 551,124.4 
	551,91.6 558,91.6 558,170 565,170 565,187.5 573,187.5 573,184.7 580,184.7 580,294 589,294 589,248.9 596,248.9 596,281.7 
	603,281.7 603,300 611,300 611,110.8 619,110.8 619,316 626,316 626,264 635,264 635,314.4 643,314.4 643,265.4 650,265.4 
	650,231.8 658,231.8 658,83.6 666,83.6 666,88.4 672,88.4 672,174.9 680,174.9 680,102.4 688,102.4 688,279.6 695,279.6 695,262.6 
	703,262.6 703,194.5 710,194.5 710,219 718,219 718,142.2 726,142.2 726,163.8 733,163.8 733,235.1 741,235.1 741,197.8 750,197.8 
	750,208.3 757,208.3 757,93.3 765,93.3 765,189 772,189 772,245.4 779,245.4 779,115.5 788,115.5 788,82.3 796,82.3 796,159.4 
	802,159.4 802,178 810,178 810,174.4 817,174.4 817,283.9 825,283.9 825,237.7 833,237.7 833,270 841,270 841,288.1 848,288.1 
	848,99.3 856,99.3 856,310.2 863,310.2 863,252 871,252 871,307 880,307 880,253.8 886,253.8 886,218.4 893,218.4 893,70.5 
	902.4,70.5 902.4,75.5 909,75.5 909,161 918,161 918,88.9 924,88.9 924,265.5 932,265.5 932,248 940,248 940,179.5 947,179.5 
	947,205 955,205 955,126.3 964,126.3 964,148.1 970,148.1 970,220 978,220 978,181 986,181 986,192.3 993,192.3 993,76.9 1001,76.9 
	1001,172.5 1009,172.5 1009,228 1016,228 1016,98.8 1024,98.8 1024,64 1032.3,64 1032.3,142 1039,142 1039,159.7 1047,159.7 
	1047,155.8 1054,155.8 1054,264.2 1062,264.2 1062,218.6 1071,218.6 1071,251 1078,251 1078,268.6 1085,268.6 1085,80 1093,80 
	1093,298 1100,298 1100,231 1108,231 1108,289 1117,289 1117,232.5 1123,232.5 1123,197 1131,197 1131,49 1139,49 1139,54 1146,54 
	1146,138.8 1155,138.8 1155,66.5 1161,66.5 1161,242.3 1170,242.3 1170,224.6 1177,224.6 1177,155.8 1184,155.8 1184,180.8 
	1192,180.8 1192,102 1201,102 1201,123.9 1207,123.9 1207,195 1215,195 1215,155.6 1223,155.6 1223,167 1231,167 1231,50.4 
	1239,50.4 1239,146.3 1246,146.3 1246,202 1253,202 1253,71.7 1261,71.7 1261,36 1269.2,36 1269.2,115 1277,115 1277,132.7 
	1284,132.7 1284,128.1 1291,128.1 1291,237 1299,237 1299,190 1307,190 1307,222.5 1315,222.5 1315,240.5 1322,240.5 1322,51 
	1330,51 1330,269.1 1337,269.1 1337,201.6 1345,201.6 1345,261 1353,261 1353,202.2 1360,202.2 1360,166.4 1369,166.4 1369,18 
	1376.5,18 1376.5,223.2 1386,223 "/>
<polyline class="st1" points="0,228 7.3,228 7.3,165 14.9,165 14.9,172.1 22,172.1 22,222.4 30,222.4 30,212.5 38,212.5 38,147.1 
	46,147.1 46,187.6 53.8,187.6 53.8,157 68,157 68,211.9 76,211.9 76,228 84.1,228 84.1,214 91,214 91,175 99,175 99,220.1 
	107,220.1 107,198.5 114,198.5 114,236 122.8,236 122.8,253.2 129,253.2 129,225.3 138,225.3 138,240.6 146,240.6 146,190.1 
	152,190.1 152,158.2 160,158.2 160,316.8 168,316.8 168,200.6 175,200.6 175,26.7 183.1,26.7 183.1,258.5 191,258.5 191,162.2 
	198,162.2 198,273.8 206,273.8 206,222.8 214,222.8 214,125.5 221,125.5 221,203.1 229,203.1 229,143.3 236,143.3 236,181.7 
	244,181.7 244,244 252,244 252,233.9 259,233.9 259,137.5 267,137.5 267,105.4 275,105.4 275,209.8 282,209.8 282,211.9 291,211.9 
	291,176 298,176 298,150 306,150 306,181.7 313,181.7 313,227 322,227 322,165.4 329,165.4 329,169.8 336,169.8 336,219.9 
	345,219.9 345,239.8 351,239.8 351,157.4 359,157.4 359,194.9 366,194.9 366,122.4 375,122.4 375,171.7 382.9,171.7 382.9,121.3 
	389,121.3 389,231.4 397,231.4 397,220.1 405,220.1 405,178.1 412,178.1 412,211.9 421,211.9 421,215.1 428,215.1 428,210.9 
	435,210.9 435,237.9 443,237.9 443,240.2 451,240.2 451,245.1 458,245.1 458,183 466,183 466,162 473,162 473,262 481,262 
	481,228.5 489,228.5 489,45 496,45 496,270 504,270 504,163.3 512,163.3 512,274.4 519,274.4 519,224 527,224 527,143.5 535,143.5 
	535,209.6 542,209.6 542,143.1 550,143.1 550,180.9 558,180.9 558,243.6 565,243.6 565,232.9 573,232.9 573,142.5 580,142.5 
	580,112.1 588,112.1 588,213.2 596,213.2 596,207.3 603,207.3 603,204.8 611,204.8 611,150 619,150 619,135.4 626,135.4 626,232.3 
	634,232.3 634,158 642,158 642,154.4 649,154.4 649,222.8 657,222.8 657,201.2 665,201.2 665,131 672,131 672,188.8 680,188.8 
	680,167.5 688,167.5 688,148 695,148 695,167 703,167 703,229.1 710,229.1 710,215.1 718,215.1 718,174 726,174 726,220.9 
	733,220.9 733,206.5 741,206.5 741,224.9 749,224.9 749,242 756,242 756,240 764,240 764,243.2 772,243.2 772,181.7 779,181.7 
	779,164.1 787,164.1 787,237.1 795,237.1 795,225.3 802,225.3 802,41.4 810,41.4 810,263.9 817,263.9 817,166.2 825,166.2 825,274 
	833,274 833,187 840,187 840,120 848,120 848,245.9 856,245.9 856,147.1 863,147.1 863,182 871,182 871,224 879,224 879,226 
	886,226 886,138.1 893,138.1 893,102.2 902,102.2 902,205 909,205 909,209.8 917,209.8 917,166.6 924,166.6 924,151.9 932,151.9 
	932,159.9 940,159.9 940,228 947,228 947,163.7 955,163.7 955,173.1 963,173.1 963,219.9 970,219.9 978,219.9 978,144 986,144 
	986,190.9 993,190.9 993,167.5 1001,167.5 1001,165.4 1009,165.4 1009,180.5 1016,180.5 1016,229.1 1024,229.1 1024,213.6 
	1032,213.6 1032,174 1039,174 1039,219.3 1046,219.3 1046,210.9 1054,210.9 1054,249.9 1062,249.9 1062,244.4 1071,244.4 
	1071,229.7 1078,229.7 1078,244.2 1085,244.2 1085,177.7 1093,177.7 1093,151.3 1100,151.3 1100,275 1108,275 1108,177 1116,177 
	1116,17 1123,17 1123,267.7 1131,267.7 1131,161 1139,161 1139,272.3 1146,272.3 1146,215 1154,215 1154,151.3 1161,151.3 
	1161,205.4 1169,205.4 1169,145 1177,145 1177,179 1184,179 1184,241 1192,241 1192,235.2 1200,235.2 1200,142 1207,142 1207,102 
	1215,102 1215,209 1231,209 1231,166.9 1237.4,166.9 1237.4,151 1246,151 1246,166.9 1252.5,166.9 1252.5,224.7 1261,224.7 
	1261,166.9 1267.4,166.9 1267.4,170 1276,170 1276,220.3 1284,220.3 1284,210.2 1291,210.2 1291,163 1299,163 1299,193 1307,193 
	1307,143 1314,143 1314,154 1322,154 1322,214 1330,214 1330,234 1337,234 1337,216.5 1345,216.5 1345,181.1 1353,181.1 1353,208.3 
	1369,208.3 1369,213 1381,213 "/>
</svg>
