<?xml version="1.0" encoding="utf-8"?>
<!-- Generator: Adobe Illustrator 27.9.0, SVG Export Plug-In . SVG Version: 6.00 Build 0)  -->
<svg version="1.1" id="Layer_1" xmlns="http://www.w3.org/2000/svg" xmlns:xlink="http://www.w3.org/1999/xlink" x="0px" y="0px"
	 viewBox="0 0 229.2 301.6" style="enable-background:new 0 0 229.2 301.6;" xml:space="preserve">
<style type="text/css">
	.st0{stroke:#000000;stroke-width:2;stroke-linejoin:round;}
	.st1{fill:#FFFFFF;stroke:#000000;stroke-width:2;stroke-linejoin:round;}
</style>
<g id="Layer_2_00000114070333162159757620000006336050344384452489_">
	<g id="Layer_1-2">
		<polygon class="st0" points="141.2,4.4 71.1,44.8 119.8,73.2 189.9,32.7 		"/>
		<polygon class="st0" points="134.1,178.3 81.7,220.4 81.9,219.7 65.6,210.2 46.5,268.2 95.2,296.6 		"/>
		<polygon class="st0" points="160.7,132.5 111.9,104.1 160,76.4 208.8,104.7 		"/>
		<polygon points="82.1,219.8 33.4,191.5 85.9,149.3 134.6,177.6 		"/>
		<polygon class="st1" points="82.1,219.8 33.4,191.5 71.2,45 120,73.3 		"/>
		<path class="st1" d="M160.7,132.5l48.1-27.8L95,297.4l0.3-0.8l38.9-118.3l-52.4,42.1l38-147.2l70.1-40.5L160.7,132.5z M95.7,295.7
			l112.4-190.4l-47.9,27.6l29.2-99.8L120,73.3L82.1,219.8l52.5-42.2L95.7,295.7"/>
		<polygon class="st1" points="81.7,220.4 33,192.1 71.1,44.8 119.8,73.2 		"/>
		<polygon class="st1" points="207.8,105.9 160,133.4 189.9,32.7 119.8,73.2 81.7,220.4 134.1,178.6 95.4,296.3 		"/>
	</g>
</g>
</svg>
