<?xml version="1.0" encoding="utf-8"?>
<!-- Generator: Adobe Illustrator 27.9.0, SVG Export Plug-In . SVG Version: 6.00 Build 0)  -->
<svg version="1.1" id="Layer_1" xmlns="http://www.w3.org/2000/svg" xmlns:xlink="http://www.w3.org/1999/xlink" x="0px" y="0px"
	 viewBox="0 0 155 110" style="enable-background:new 0 0 155 110;" xml:space="preserve">
<style type="text/css">
	.st0{fill:#FFFFFF;}
	.st1{fill:#191E1E;}
</style>
<g>
	<path class="st0" d="M137,11.9c-1.7,2.3-3.6,4.4-5.8,6.2c-0.6,0.5-1.2,1-1.8,1.5l-0.3-0.2l-0.3-0.1c-6.4-3.6-13.3-6.4-20.5-8.3
		c-9.8-2.6-19.9-3.9-30.1-3.9C39.1,7.1,7.1,25.6,7.3,48.4c0,3.4,0.7,6.7,2.1,9.7c3.2,7.5,10,14.2,19.1,19.5c0.6,0.3,1.1,0.7,1.7,1
		l2.6,1.4c5.4,2.6,11,4.7,16.8,6.1c3.7,0.9,7.4,1.7,11.1,2.3c4,0.6,8.1,1,12.1,1.2c1.9,0.1,3.9,0.1,5.9,0.1c1.2,0,2.3,0,3.5,0
		c0.6,0,1.2,0,1.8-0.1c1.1,0,2.2-0.1,3.2-0.2c0.6,0,1.2-0.1,1.8-0.1c0.6-0.1,1.2-0.1,1.9-0.2c25-2.5,45.5-12.6,54.2-26.1l0,0
		c2.3-3.5,3.8-7.5,4.4-11.6C151.6,41,146.1,27.7,137,11.9z M42.2,77.8c-0.1,0.1-0.2,0.2-0.3,0.3l-0.3,0.3c-0.2,0.2-0.5,0.3-0.8,0.5
		l-0.1,0h-0.1c-1,0.5-2.1,0.7-3.2,0.7c-1.5,0.1-3-0.2-4.4-0.8c-0.2-0.1-0.4-0.2-0.5-0.3c-0.2-0.1-0.3-0.2-0.4-0.2
		c-0.8-0.5-1.3-1.4-1.3-2.3c0-0.3,0.1-0.6,0.3-0.9c0.1-0.2,0.2-0.4,0.4-0.5l0-0.1c0.2-0.2,0.4-0.4,0.6-0.6c0.2-0.1,0.4-0.2,0.5-0.3
		c0.2-0.1,0.5-0.2,0.7-0.3c2-0.7,4.1-0.8,6.1-0.2c0.4,0.1,0.8,0.2,1.2,0.4h0.1l0.4,0.2c0.8,0.4,1.4,1.1,1.7,1.9
		C43,76.3,42.8,77.2,42.2,77.8L42.2,77.8z M146.8,46.8v1.2c0,0,0,0.1,0,0.1c0,0.4,0,0.8-0.1,1.2v0c0,0.4-0.1,0.8-0.1,1.2v0.1
		c-0.1,0.4-0.1,0.8-0.2,1.2c0,0,0,0.1,0,0.1c-0.1,0.4-0.2,0.8-0.3,1.2l0,0c-0.1,0.4-0.2,0.8-0.3,1.2v0.1c-0.1,0.4-0.2,0.8-0.4,1.2
		c-0.1,0.4-0.4,0.9-0.6,1.4c-0.1,0.2-0.2,0.4-0.3,0.6v0c-0.5,1.1-1.1,2.1-1.8,3l-0.1,0.2l-0.3,0.5l-0.2,0.2
		c-0.1,0.1-0.2,0.3-0.3,0.4l-0.2,0.3l-0.3,0.4l-0.3,0.3c-0.2,0.2-0.3,0.4-0.5,0.6l-0.4,0.4l-0.3,0.3l-0.4,0.4l-0.3,0.3l-0.4,0.4
		l-0.3,0.3l-0.5,0.4l-0.3,0.2l-0.7,0.6l0,0c-0.3,0.3-0.7,0.5-1.1,0.8l-0.3,0.2c-0.3,0.2-0.6,0.4-0.9,0.6l-0.2,0.2
		c-0.4,0.2-0.8,0.5-1.1,0.7l-0.2,0.1c-0.3,0.2-0.7,0.4-1,0.5l-0.3,0.2c-0.8,0.4-1.7,0.8-2.5,1.2l-0.3,0.1l-1.2,0.5l-0.2,0.1
		l-1.4,0.5l-0.1,0l-1.3,0.4l-0.2,0.1c-1,0.3-2,0.6-3,0.8l-0.2,0l-1.5,0.4h0c-1.1,0.2-2.2,0.5-3.4,0.7h-0.1c-1.1,0.2-2.3,0.4-3.5,0.5
		c-16.9,2.3-36.7,0.8-52,1.1h-3c-0.2,0-4.3,0.2-8.5,0.5c0.1,0,0.9-0.2,2.1-0.5c0.5-0.1,1-0.2,1.6-0.3c7.9-1.6,13.9-2.6,19-3.5
		c0.7-0.1,1.4-0.2,2-0.4l1.8-0.3l0.3-0.1l1.5-0.3l0.4-0.1l1.3-0.3c2.9-0.6,5.7-1.3,8.7-2.2l0.2-0.1c0.5-0.1,1-0.3,1.5-0.5l0.7-0.2
		l1.1-0.4l0.7-0.3l1-0.3l0.8-0.3l0.9-0.4l0.8-0.3c0.3-0.1,0.6-0.2,0.9-0.4l0.8-0.3l0.9-0.4l0.8-0.4l0.8-0.4l0.8-0.4l0.8-0.4
		c0.3-0.1,0.6-0.3,0.8-0.4l0.8-0.4l0.9-0.4l0.7-0.4l0.9-0.5l0.7-0.4l0.9-0.5l0.7-0.4l0.9-0.5l0.6-0.4l0.9-0.6l0.5-0.3l1-0.6l0.3-0.2
		c1-0.7,2-1.3,2.9-2c1.1-0.8,2.3-1.7,3.3-2.6l0.1-0.1c0.3-0.3,0.7-0.6,1-0.9l0.2-0.2l0.9-0.8l0.3-0.2c0.3-0.3,0.6-0.5,0.8-0.8
		l0.3-0.3c0.3-0.3,0.5-0.5,0.8-0.8l0.3-0.3l0.7-0.8l0.2-0.3c0.2-0.3,0.5-0.6,0.7-0.8c0.1-0.1,0.2-0.2,0.2-0.3
		c0.2-0.3,0.4-0.6,0.7-0.8l0.2-0.3c0.2-0.3,0.4-0.6,0.6-0.9l0.2-0.3c0.2-0.3,0.4-0.6,0.6-0.9l0.1-0.2c0.2-0.3,0.4-0.6,0.5-0.9
		l0.1-0.2c0.2-0.3,0.3-0.6,0.5-1l0.1-0.1c0.1-0.3,0.3-0.6,0.4-0.9c0,0,0-0.1,0.1-0.1l0,0c0.3-0.7,0.6-1.5,0.8-2.2
		c-0.6,1.1-1.3,2.1-2.1,3c-0.3,0.3-0.6,0.7-0.9,1l0,0c-3.3,3.8-7.8,7.3-13.1,10.5l-0.1,0.1c-0.4,0.3-0.9,0.5-1.3,0.8l-0.2,0.1
		l-1.3,0.7l-0.3,0.1l-1.3,0.7l-0.3,0.1l-1.3,0.7l-0.3,0.1l-1.3,0.7l-0.2,0.1l-1.4,0.7l0,0c-1.6,0.7-3.2,1.4-4.9,2.1l-0.1,0.1
		l-1.2,0.5l-0.6,0.2l-1.1,0.4l-0.8,0.3l-1,0.4l-0.8,0.3l-1,0.3l-0.9,0.3l-0.9,0.3l-0.9,0.3l-0.9,0.3l-1,0.3l-0.9,0.3l-1,0.3L86,63.7
		c-0.4,0.1-0.7,0.2-1.1,0.3l-0.8,0.2L83,64.4l-0.6,0.2L80.6,65h-0.1c-2.2,0.5-4.6,0.9-7.1,1.4l-2.3,0.4l-2.5,0.4l-1.3,0.2
		c-12.2,1.9-24.9,3.4-25.8,3.5l-0.6-0.2l-0.4-0.1c-1.7-0.4-3.3-1-4.8-1.8l-0.7-0.5l-0.2-0.1c-0.5-0.3-0.9-0.7-1.4-1l-0.1-0.1
		c-0.2-0.2-0.4-0.4-0.6-0.6c-1-0.9-1.9-2-2.5-3.2c-0.1-0.2-0.3-0.5-0.4-0.7c0,0,0-0.1-0.1-0.1c-0.1-0.2-0.2-0.5-0.3-0.7v-0.1
		c-0.1-0.2-0.2-0.5-0.2-0.7c0,0,0-0.1,0-0.1C29,60.5,29,60.2,28.9,60v-0.1c-0.1-0.5-0.2-1.1-0.2-1.6v-1c0-0.3,0-0.5,0-0.8v-0.1
		c0-0.3,0.1-0.5,0.1-0.8v-0.1c0-0.3,0.1-0.6,0.2-0.8l0,0c0.1-0.3,0.2-0.6,0.2-0.8l0.1-0.2c0.1-0.3,0.2-0.5,0.3-0.8c0,0,0-0.1,0-0.1
		c0.1-0.3,0.2-0.5,0.4-0.8l0.1-0.1c0.1-0.3,0.3-0.5,0.4-0.8c0,0,0.1-0.1,0.1-0.2c0.2-0.3,0.3-0.5,0.5-0.8c0,0,0,0,0-0.1
		c0.2-0.3,0.4-0.5,0.6-0.8l0.1-0.2c0.2-0.3,0.4-0.5,0.7-0.8l0.1-0.1c0.2-0.2,0.4-0.5,0.7-0.7l0.1-0.1c0.3-0.3,0.5-0.5,0.8-0.8
		l0.2-0.1c0.3-0.2,0.5-0.5,0.8-0.7l0.1-0.1c0.3-0.2,0.6-0.5,0.9-0.7l0.2-0.2c0.3-0.2,0.7-0.5,1-0.7l0.1-0.1c0.3-0.2,0.7-0.4,1-0.7
		l0.2-0.1l1.1-0.7l0.2-0.1c0.4-0.2,0.7-0.4,1.1-0.6l0.2-0.1c0.4-0.2,0.9-0.4,1.3-0.6l0.3-0.1l1.4-0.6h0.1c0.5-0.2,0.9-0.4,1.4-0.6
		l0.3-0.1c0.5-0.2,1-0.4,1.5-0.5L48,39c0.5-0.2,1-0.3,1.5-0.5l0.3-0.1c0.6-0.2,1.1-0.3,1.7-0.5l0.4-0.1c0.6-0.1,1.2-0.3,1.8-0.4
		c1.9-0.4,3.9-0.8,5.8-1l1.8-0.2c6.1-0.7,12.2-0.8,18.4-1c2.6-0.1,5.1-0.2,7.8-0.4l2-0.1l0.5,0c1.7-0.1,3.5-0.3,5.2-0.6
		c1-0.1,2-0.3,3-0.5c2.5-0.4,5-1,7.6-1.6c1-0.3,2-0.5,3-0.8c1-0.3,2-0.6,3-0.9c2.5-0.8,4.9-1.7,7.2-2.6c1.9-0.8,3.6-1.6,5.3-2.5
		c4.6-2.4,8.5-5.1,11.3-8.1l0.5-0.5c0.1-0.1,0.3-0.3,0.4-0.4l0.6,1l0.1,0.2c0.4,0.6,0.7,1.3,1.1,2c0,0.1,0.1,0.1,0.1,0.2
		c0.2,0.3,0.4,0.7,0.6,1v0l0.5,1l0.1,0.2l0.5,1.1v0.1l0.5,1l0.1,0.1c0.2,0.4,0.4,0.7,0.5,1.1l0,0.1c0.2,0.4,0.3,0.7,0.5,1.1l0.1,0.1
		l0.5,1.1c0,0,0,0.1,0,0.1c0.2,0.4,0.3,0.7,0.5,1.1l0,0.1c0.2,0.4,0.3,0.8,0.5,1.2l0,0.1c0.2,0.4,0.3,0.8,0.4,1.2l0,0
		c0.1,0.4,0.3,0.8,0.4,1.2l0,0.1c0.3,0.8,0.5,1.6,0.8,2.4c0,0,0,0.1,0,0.1c0.2,0.8,0.5,1.6,0.7,2.5c0,0,0,0.1,0,0.1
		c0.2,0.8,0.4,1.6,0.5,2.5v0.1c0.1,0.8,0.3,1.7,0.4,2.5v0.1c0.1,0.8,0.1,1.7,0.2,2.5L146.8,46.8L146.8,46.8z"/>
	<path class="st1" d="M136.8,17.1l-0.6-1c-0.1,0.1-0.2,0.3-0.4,0.4l-0.5,0.5c-2.7,3-6.7,5.7-11.3,8.1c-1.7,0.9-3.5,1.7-5.3,2.5
		c-2.3,1-4.7,1.8-7.2,2.6c-1,0.3-2,0.6-3,0.9s-2,0.6-3,0.8c-2.5,0.6-5.1,1.2-7.6,1.6c-1,0.2-2,0.3-3,0.5c-1.8,0.2-3.5,0.4-5.2,0.6
		l-0.5,0c-10.5,0.9-20.1,0.4-30,1.7c-1.9,0.3-3.8,0.6-5.8,1c-0.6,0.1-1.2,0.3-1.8,0.4L51.4,38c-0.6,0.1-1.2,0.3-1.7,0.5l-0.3,0.1
		c-0.5,0.1-1,0.3-1.5,0.5l-0.3,0.1c-0.5,0.2-1,0.3-1.5,0.5l-0.3,0.1c-0.5,0.2-1,0.4-1.4,0.6h-0.1l-1.4,0.6L42.6,41
		c-0.4,0.2-0.9,0.4-1.3,0.6l-0.2,0.1c-0.4,0.2-0.8,0.4-1.1,0.6l-0.2,0.1l-1.1,0.7l-0.2,0.1c-0.3,0.2-0.7,0.4-1,0.7l-0.1,0.1
		c-0.3,0.2-0.7,0.5-1,0.7l-0.2,0.2c-0.3,0.2-0.6,0.5-0.9,0.7l-0.1,0.1c-0.3,0.2-0.5,0.5-0.8,0.7l-0.2,0.1c-0.3,0.2-0.5,0.5-0.8,0.7
		l-0.1,0.1c-0.2,0.2-0.5,0.5-0.7,0.7l-0.1,0.1c-0.2,0.3-0.4,0.5-0.7,0.8l-0.1,0.2c-0.2,0.3-0.4,0.5-0.6,0.8v0.1
		c-0.2,0.3-0.3,0.5-0.5,0.8c0,0.1-0.1,0.1-0.1,0.2c-0.2,0.3-0.3,0.5-0.4,0.8L30,51.8c-0.1,0.3-0.2,0.5-0.4,0.8c0,0,0,0.1,0,0.1
		c-0.1,0.3-0.2,0.5-0.3,0.8l-0.1,0.2c-0.1,0.3-0.2,0.6-0.2,0.8l0,0c-0.1,0.3-0.1,0.6-0.2,0.8v0.1c0,0.3-0.1,0.5-0.1,0.8v0.1
		c0,0.3,0,0.5,0,0.8v1c0,0.5,0.1,1.1,0.2,1.6v0.1c0,0.3,0.1,0.5,0.2,0.8c0,0,0,0.1,0,0.1c0.1,0.2,0.1,0.5,0.2,0.7v0.1
		c0.1,0.2,0.2,0.5,0.3,0.7c0,0,0,0.1,0.1,0.1c0.1,0.2,0.2,0.5,0.4,0.7l0,0c0.7,1.2,1.5,2.3,2.5,3.2l0,0c0.2,0.2,0.4,0.4,0.6,0.6
		l0.1,0.1c0.4,0.4,0.9,0.7,1.4,1l0.2,0.1l0.7,0.5c1.5,0.8,3,1.5,4.6,1.9l0.4,0.1l0.6,0.2c1-0.1,16.3-1.9,29.6-4.1l2.3-0.4
		c2.5-0.4,5-0.9,7.1-1.4h0.1l1.8-0.4l0.6-0.2l1.2-0.3l0.8-0.2c0.4-0.1,0.7-0.2,1.1-0.3l0.8-0.2l1-0.3l0.9-0.3l1-0.3l0.9-0.3l0.9-0.3
		l0.9-0.3l0.9-0.3l1-0.3l0.8-0.3l1-0.4l0.7-0.3l1.1-0.4l0.6-0.2l1.2-0.5l0.1-0.1c1.7-0.7,3.3-1.4,4.9-2.1l0,0l1.4-0.6l0.2-0.1
		l1.3-0.7l0.3-0.1l1.3-0.7l0.3-0.1l1.3-0.7l0.3-0.1l1.3-0.7l0.2-0.1c0.4-0.3,0.9-0.5,1.3-0.8l0.1-0.1c5.3-3.2,9.9-6.7,13.1-10.5l0,0
		c0.3-0.3,0.6-0.7,0.9-1l0,0c0.8-1,1.5-2,2.1-3c-0.3,1.1-0.8,2.2-1.3,3.3l-0.1,0.1c-0.2,0.3-0.3,0.6-0.5,1l-0.1,0.2
		c-0.2,0.3-0.4,0.6-0.5,0.9l-0.1,0.2c-0.2,0.3-0.4,0.6-0.6,0.9l-0.2,0.3c-0.2,0.3-0.4,0.6-0.6,0.9l-0.2,0.3
		c-0.2,0.3-0.4,0.6-0.7,0.8c-0.1,0.1-0.1,0.2-0.2,0.3c-0.2,0.3-0.5,0.6-0.7,0.8l-0.2,0.3l-0.7,0.8l-0.3,0.3
		c-0.3,0.3-0.5,0.5-0.8,0.8l-0.2,0.4c-0.3,0.3-0.6,0.5-0.9,0.8L121,51l-0.9,0.8l-0.2,0.2c-0.3,0.3-0.7,0.6-1,0.9l-0.1,0.1
		c-2,1.6-4.1,3.2-6.3,4.6l-0.3,0.2l-1,0.6l-0.5,0.3l-1,0.6l-0.6,0.4l-0.9,0.5l-0.7,0.4l-0.9,0.5l-0.7,0.4l-0.9,0.5l-0.7,0.4
		l-0.9,0.4l-0.8,0.4c-0.3,0.1-0.6,0.3-0.9,0.4l-0.8,0.4l-0.8,0.4l-0.9,0.4L98.5,65l-0.9,0.4l-0.8,0.3c-0.3,0.1-0.6,0.2-0.9,0.4
		l-0.8,0.3l-0.9,0.4L93.4,67l-1,0.3l-0.7,0.3L90.5,68l-0.7,0.2c-0.5,0.2-1,0.3-1.5,0.5l-0.2,0.1c-3,0.9-5.8,1.6-8.7,2.2l-1.3,0.3
		l-0.4,0.1l-1.5,0.3l-0.3,0.1L74,72c-0.7,0.1-1.3,0.2-2,0.4c-5.1,0.9-11.1,1.9-19,3.5c-0.6,0.1-1.1,0.2-1.6,0.3
		c-1.2,0.3-2.1,0.5-2.1,0.5c4.3-0.3,8.3-0.5,8.5-0.5h3c15.3-0.2,35.1,1.3,51.8-1c1.2-0.2,2.4-0.3,3.5-0.5h0.1
		c1.1-0.2,2.3-0.4,3.4-0.7h0l1.5-0.4l0.2,0c1-0.3,2.1-0.5,3-0.8l0.2-0.1l1.3-0.4l0.1,0l1.4-0.5l0.2-0.1l1.2-0.5l0.3-0.1
		c0.9-0.4,1.7-0.8,2.5-1.2l0.3-0.2c0.3-0.2,0.7-0.3,1-0.5l0.2-0.1c0.4-0.2,0.8-0.4,1.1-0.7l0.2-0.2c0.3-0.2,0.6-0.4,0.9-0.6l0.3-0.2
		c0.4-0.2,0.7-0.5,1-0.8l0,0c0.2-0.2,0.5-0.4,0.7-0.6l0.3-0.2l0.5-0.4l0.3-0.3l0.4-0.4l0.3-0.3l0.4-0.4L140,64l0.4-0.4
		c0.2-0.2,0.3-0.4,0.5-0.6l0.3-0.3l0.3-0.4l0.2-0.3c0.1-0.1,0.2-0.3,0.3-0.4l0.2-0.2l0.3-0.5l0.1-0.2c0.7-1,1.3-2,1.8-3v0
		c0.1-0.2,0.2-0.4,0.3-0.6l0,0c0.2-0.5,0.4-0.9,0.6-1.4l0,0c0.1-0.4,0.3-0.8,0.4-1.2v-0.1c0.1-0.4,0.2-0.8,0.3-1.2l0,0
		c0.1-0.4,0.2-0.8,0.3-1.2V52c0.1-0.4,0.1-0.8,0.2-1.2v-0.1c0.1-0.4,0.1-0.8,0.1-1.2v0c0-0.4,0.1-0.8,0.1-1.2V47l0,0v-1.4
		c0-0.8-0.1-1.7-0.2-2.5V43c-0.1-0.8-0.2-1.7-0.4-2.5v-0.1c-0.1-0.8-0.3-1.6-0.5-2.5c0,0,0-0.1,0-0.1c-0.2-0.8-0.4-1.6-0.7-2.5
		c0,0,0-0.1,0-0.1c-0.2-0.8-0.5-1.6-0.8-2.4l0-0.1c-0.1-0.4-0.3-0.8-0.4-1.2l0,0c-0.1-0.4-0.3-0.8-0.4-1.2l0-0.1
		c-0.2-0.4-0.3-0.8-0.5-1.2l0.1-0.3c-0.1-0.4-0.3-0.7-0.5-1.1c0,0,0-0.1,0-0.1l-0.5-1.1l-0.1-0.1c-0.2-0.4-0.3-0.7-0.5-1.1l0-0.1
		c-0.2-0.4-0.3-0.7-0.5-1.1l-0.1-0.1l-0.5-1v-0.1l-0.5-1.1l-0.1-0.2l-0.5-1v0c-0.2-0.3-0.4-0.7-0.6-1c0-0.1-0.1-0.1-0.1-0.2
		c-0.4-0.7-0.7-1.3-1.1-2L136.8,17.1z M109.2,53.7c-9.2,4.8-19.1,8.4-29.3,10.5c-12.5,2.7-34.5,5.3-38.3,5.8L41,69.8
		c-1.5-0.4-2.9-1-4.3-1.8c-1.2-0.7-2.4-1.6-3.4-2.6c1.4-1.6,2.9-3.1,4.7-4.3c4.1-2.8,9.5-5,16.1-6.5c7.4-1.7,14.7-1.9,22.4-2.1
		c6.3-0.1,12.6-0.5,18.9-1.3c9.3-1.3,20.6-4.4,29.6-8.9C121.2,46.3,115.8,50.2,109.2,53.7L109.2,53.7z M60.8,75.3L60.8,75.3l0.9-0.2
		L60.8,75.3z M144.1,54.3c-1.5,4.7-4.5,8.8-8.4,11.7c-5.4,4.2-12.8,6.6-21.3,7.9c0.6-0.4,1.1-0.8,1.7-1.1c8.4-6,13.8-12.4,15.6-18.7
		l0-15.9c1.5-1,2.9-2.2,4.2-3.5l0,0C138.9,40,142.4,47.1,144.1,54.3L144.1,54.3z"/>
	<path class="st1" d="M41.1,73.6l-0.4-0.2h-0.1c-0.4-0.2-0.8-0.3-1.2-0.4c-2.3-0.7-4.7-0.4-6.8,0.6c-0.2,0.1-0.4,0.2-0.5,0.3
		c-0.2,0.2-0.4,0.4-0.6,0.6l0,0.1c-0.1,0.2-0.3,0.3-0.4,0.5c-0.2,0.3-0.3,0.6-0.3,0.9c0,0.9,0.5,1.8,1.3,2.3
		c0.1,0.1,0.2,0.2,0.4,0.2c0.2,0.1,0.4,0.2,0.5,0.3c1.4,0.6,2.9,0.9,4.4,0.8c1.1,0,2.2-0.3,3.2-0.7h0.1l0.1,0
		c0.3-0.1,0.5-0.3,0.8-0.5l0.3-0.3c0.1-0.1,0.2-0.2,0.3-0.3c0.6-0.6,0.8-1.5,0.6-2.3C42.4,74.7,41.9,74,41.1,73.6z"/>
	<path class="st1" d="M151.5,47c0.1-8.7-4-19.6-13.1-35.4l-1.3-2.3l-1.6,2.2c-1.8,2.5-4,4.8-6.4,6.7c-7.1-3.9-14.6-6.8-22.5-8.7
		c-9.3-2.3-18.8-3.4-28.4-3.4C38.2,6.2,5.6,25.1,5.7,48.4l0,16.4c0.1,11.2,7.8,21.8,21.7,29.9c0.6,0.3,1.2,0.7,1.8,1l2.7,1.4
		c13.1,6.4,29.8,9.9,46.9,9.9c18.4,0,36-4,49.5-11.4c13.5-7.3,21.5-17.1,22.8-27.7c0.3-1.5,0.4-3,0.4-4.5L151.5,47
		C151.5,47,151.5,47,151.5,47z M149.6,51.4c-0.5,4.2-2,8.1-4.4,11.6l0,0C136.5,76.5,116,86.6,91,89.1c-0.6,0.1-1.2,0.1-1.9,0.2
		l-1.8,0.1c-1.1,0.1-2.1,0.1-3.2,0.2c-0.6,0-1.2,0-1.8,0.1c-1.2,0-2.3,0-3.5,0c-2,0-3.9,0-5.9-0.1l0,0c-4.1-0.2-8.1-0.6-12.1-1.2
		l0,0c-3.7-0.6-7.5-1.3-11.1-2.2c-0.8-0.2-1.5-0.4-2.3-0.6c-5-1.4-9.9-3.2-14.6-5.5l-2.7-1.3c-0.6-0.3-1.2-0.6-1.7-1
		c-9.2-5.3-16-12-19.1-19.5c-1.3-3.1-2-6.4-2.1-9.7C7.1,25.6,39.1,7.2,78.4,7.2c10.1,0,20.2,1.3,30,3.9c1.9,0.5,3.8,1.1,5.6,1.7
		c5.2,1.7,10.2,3.9,14.9,6.6l0.3,0.1l0.3,0.2c0.6-0.5,1.2-1,1.8-1.5c2.2-1.8,4.1-4,5.8-6.3l0,0C146.1,27.7,151.6,41,149.6,51.4
		L149.6,51.4z"/>
</g>
</svg>
