<?xml version="1.0" encoding="utf-8"?>
<!-- Generator: Adobe Illustrator 27.9.0, SVG Export Plug-In . SVG Version: 6.00 Build 0)  -->
<svg version="1.1" id="Layer_1" xmlns="http://www.w3.org/2000/svg" xmlns:xlink="http://www.w3.org/1999/xlink" x="0px" y="0px"
	 viewBox="0 0 203.6 170" style="enable-background:new 0 0 203.6 170;" xml:space="preserve">
<style type="text/css">
	.st0{fill:#191E1E;}
	.st1{fill:#FFFFFF;}
	.st2{clip-path:url(#SVGID_00000111184201659229750500000008750092457481484196_);}
</style>
<path class="st0" d="M167.5,100.6l-0.1,30.2c0.1-0.1,0.3-0.4,0.6-0.6v0.6c1.1-1.1,2.1-2.2,3.1-3.4c0.1-0.1,0.3-0.3,0.4-0.4
	c0.1-0.1,0.1-0.3,0.3-0.4c1-1.3,2-2.7,2.7-4.1v-0.1c0.6-0.8,1-1.7,1.4-2.7h21.1L197,72l-0.1-22h-14.3"/>
<path class="st0" d="M168,132.4c-0.1,0-0.3,0-0.4-0.1c-0.3,0-0.4,0-0.7-0.1c-0.6-0.3-1-0.8-1-1.4l0.1-30.2c0-0.8,0.7-1.5,1.5-1.5
	l0,0l0,0c0.8,0,1.5,0.7,1.5,1.5l0,0v27l0.8-1l0.3-0.3l0.1-0.1c0.1-0.1,0.1-0.3,0.3-0.4c1-1.3,1.8-2.5,2.5-3.8c0,0,0-0.1,0.1-0.1
	c0.4-0.8,0.8-1.7,1.3-2.5c0.3-0.6,0.8-1,1.4-0.8h19.6l0.1-46.3l-0.1-20.4h-12.7c-0.8,0-1.5-0.7-1.5-1.5c0-0.8,0.7-1.5,1.5-1.5h14.3
	c0.8,0,1.5,0.7,1.5,1.5l0.1,22l-0.1,47.8c0,0.8-0.7,1.5-1.5,1.5h-20.4c-0.3,0.6-0.6,1.3-1,1.8l-0.1,0.1c-0.8,1.4-1.8,2.8-2.8,4.1
	l-0.3,0.4l-0.3,0.3l-0.1,0.1c-1,1.3-2,2.4-3.1,3.5C168.7,132.2,168.3,132.4,168,132.4z"/>
<path class="st0" d="M182.7,50.2V30.6L155.9,15L141,23.7c-6.2-2.1-12.6-3.6-19-4.5V7.1H84.1v12.3c-6.4,1-12.7,2.5-18.9,4.5l-15-8.7
	L23.7,30.7v19.6h-14L9.6,98.1l0.1,22h21.1v-0.1l0,0v0.1c2,4.2,4.6,7.8,8,11v-0.8c0.1,0.1,0.4,0.4,0.6,0.6l0.1-30.3l11.5,6.6
	l14.8-8.7v10.3l0,0c0,5.6,3.6,11.2,11,15.5c1.7,1,3.5,1.8,5.5,2.7l0.3,0.1c0.3,0.1,0.6,0.1,1,0.3c1.1,0.4,2.2,0.8,3.4,1.1
	c0.6,0.1,1.3,0.3,2,0.4l1.1,0.3l1,0.3c1.3,0.3,2.5,0.4,3.8,0.7l1.4,0.1l1,0.1l1.4,0.1c1.3,0.1,2.5,0.1,3.8,0.1h2.2
	c0.6,0,1.1,0,1.7,0c1.4,0,2.8-0.1,4.2-0.3l0.4-0.1l1.1-0.1c1.1-0.1,2.2-0.3,3.2-0.4c0.4-0.1,0.8-0.3,1.4-0.3c1.3-0.3,2.5-0.6,3.8-1
	c0.7-0.1,1.4-0.3,2-0.6c0.6-0.3,1-0.4,1.5-0.6c0.6-0.1,1-0.3,1.5-0.6c1.8-0.7,3.5-1.5,5.2-2.5l0.4-0.3c0.3-0.1,0.7-0.4,1-0.7
	c0.3-0.3,1-0.6,1.4-0.8c0.4-0.3,0.7-0.6,1.1-0.8c0.4-0.3,0.8-0.6,1.1-1l0.3-0.1c0.1-0.1,0.3-0.3,0.4-0.4c0.6-0.6,1.1-1.1,1.5-1.7
	c0.1-0.1,0.3-0.3,0.3-0.4s0.1-0.3,0.3-0.4c0.3-0.4,0.6-0.8,0.8-1.3c0.1-0.1,0.3-0.4,0.4-0.6c0.1-0.1,0.1-0.1,0.1-0.3
	c0.1-0.4,0.4-0.8,0.6-1.3c0.1-0.3,0.3-0.4,0.3-0.7s0-0.1,0.1-0.3c0.1-0.4,0.3-0.7,0.3-1.1c0.1-0.3,0.1-0.6,0.3-0.7s0-0.1,0-0.1
	c0-0.4,0.1-0.8,0.1-1.3c0-0.3,0.1-0.6,0.1-0.8v-0.3V98.5c0.3-0.1,0.4-0.1,0.7-0.1l15,8.7l11.2-6.4"/>
<path class="st0" d="M39.4,132.4c-0.1,0-0.3,0-0.4,0c-0.4,0-0.8-0.1-1.3-0.4c-3.2-3.1-5.9-6.7-7.8-10.6H9.7c-0.8,0-1.5-0.7-1.5-1.5
	l0,0L8,97.8L8.2,50c0-0.8,0.7-1.5,1.5-1.5h12.4V30.3c0-0.6,0.3-1,0.7-1.3l26.7-15.4c0.4-0.3,1.1-0.3,1.5,0l14.4,8.3
	c5.6-1.8,11.3-3.2,17.2-4.2V6.8c0-0.8,0.7-1.5,1.5-1.5h37.9c0.8,0,1.5,0.7,1.5,1.5v10.9c5.9,1,11.6,2.4,17.3,4.2l14.3-8.3
	c0.4-0.3,1.1-0.3,1.5,0l26.9,15.5c0.4,0.3,0.7,0.8,0.7,1.3V50c0,0.8-0.7,1.5-1.5,1.5l0,0l0,0c-0.8,0-1.5-0.7-1.5-1.5V31.3L156,16.7
	L141.9,25c-0.4,0.3-0.8,0.3-1.3,0.1c-6.2-2-12.4-3.5-18.7-4.5c-0.7-0.1-1.3-0.7-1.3-1.5V8.3H85.8v10.8c0,0.7-0.6,1.4-1.3,1.5
	c-6.3,1-12.6,2.4-18.6,4.5c-0.4,0.1-0.8,0.1-1.3-0.1l-14.1-8.3L25.4,31.3V50c0,0.8-0.7,1.5-1.5,1.5H11.4l-0.1,46.3l0.1,20.4h18.9
	c0.3-0.1,0.4-0.1,0.7-0.1c0.8,0,1.4,0.6,1.5,1.4c1.4,2.9,3.2,5.7,5.5,8.1v-27.1c0-0.6,0.3-1,0.8-1.3c0.4-0.3,1.1-0.3,1.5,0l10.8,6.2
	l14.1-8.3c0.4-0.3,1.1-0.3,1.5,0c0.4,0.3,0.7,0.8,0.7,1.3v10.2c0,5.3,3.6,10.3,10.3,14.1c1.7,1,3.4,1.8,5.2,2.5l0.3,0.1l0.4,0.1
	l0.4,0.1h0.1c1,0.4,2,0.7,3.1,1l1.1,0.3l1,0.3l0.7,0.1l0.4,0.1l0.4,0.1c1.1,0.3,2.4,0.4,3.6,0.7l0.7,0.1l2.1,0.3
	c0.3,0,0.6,0.1,0.7,0.1c1.1,0.1,2.4,0.1,3.6,0.1h2.8c0.3,0,0.7,0,1,0c1.4,0,2.8-0.1,4.1-0.3h0.1h0.3l0.6-0.1l1-0.1
	c0.8-0.1,1.8-0.3,2.7-0.4l0.6-0.1l0.7-0.1c1.4-0.3,2.7-0.6,3.6-0.8l1-0.3c0.3,0,0.7-0.1,1-0.3s0.6-0.1,0.8-0.3l0.7-0.3l1.4-0.6
	c1.7-0.7,3.4-1.5,5-2.4l0.4-0.3c0.1-0.1,0.3-0.3,0.6-0.3l0.7-0.4c0.3-0.3,0.7-0.4,1-0.7c0.3-0.3,0.6-0.4,0.7-0.6l0.4-0.4
	c0.3-0.3,0.6-0.4,0.8-0.7l0.1-0.1l0.1-0.1c0.1-0.1,0.1-0.1,0.3-0.3c0.6-0.6,1.1-1.1,1.5-1.5c0.1-0.1,0.1-0.1,0.3-0.3l0.1-0.1
	l0.1-0.3c0.3-0.4,0.6-0.8,0.8-1.3l0.3-0.3c0,0,0-0.1,0.1-0.1c0-0.1,0-0.1,0.1-0.3c0.1-0.4,0.3-0.7,0.6-1.1c0-0.1,0.1-0.3,0.1-0.4
	s0.1-0.1,0.1-0.3c0-0.1,0-0.1,0.1-0.3c0.1-0.3,0.1-0.6,0.3-0.8v-0.1c0-0.1,0-0.3,0.1-0.4c0-0.1,0-0.1,0.1-0.3v-0.1
	c0-0.3,0.1-0.6,0.1-0.8v-0.1c0-0.1,0-0.3,0-0.4s0-0.1,0-0.3v-0.3V98.5c0-0.7,0.4-1.3,1.1-1.4l0.4-0.1l0.3-0.1
	c0.4-0.1,0.8-0.1,1.3,0.1l14.1,8.1l10.3-6c0.7-0.4,1.7-0.1,2.1,0.6c0.4,0.7,0.1,1.7-0.6,2.1l0,0l-11.2,6.4c-0.4,0.3-1.1,0.3-1.5,0
	l-13.3-7.7v8.5c0,0.3,0,0.6-0.1,0.7c0,0,0,0.1,0,0.3v0.1c0,0.4-0.1,0.7-0.1,1.1v0.1c0,0.3-0.1,0.4-0.1,0.7l-0.1,0.3
	c-0.1,0.4-0.3,0.8-0.4,1.3c0,0,0,0.1-0.1,0.3c-0.1,0.1-0.1,0.4-0.3,0.6c0,0,0,0.1-0.1,0.1c-0.1,0.4-0.4,0.8-0.6,1.3
	c0,0.1-0.1,0.1-0.1,0.3c-0.1,0.1-0.1,0.3-0.3,0.4l-0.1,0.1c-0.3,0.4-0.6,1-1,1.4l-0.3,0.4l-0.3,0.3c-0.6,0.7-1.1,1.3-1.8,2
	c-0.1,0.1-0.3,0.3-0.4,0.4l-0.1,0.1c-0.4,0.3-0.7,0.6-1.1,0.8l-0.4,0.4l-0.8,0.7c-0.4,0.3-0.7,0.6-1.1,0.8l-0.6,0.4l-0.7,0.4
	l-0.4,0.3c-1.8,1-3.6,1.8-5.5,2.7c-0.6,0.1-1,0.4-1.5,0.6l-0.6,0.3l-1,0.4c-0.4,0.1-0.8,0.3-1.3,0.3l-0.8,0.1
	c-1.1,0.3-2.4,0.7-3.9,1l-0.6,0.1c-0.3,0.1-0.6,0.1-0.8,0.3c-1,0.1-1.8,0.3-2.8,0.4l-1,0.3l-0.7,0.1h-0.1h-0.3
	c-1.4,0.1-2.8,0.3-4.3,0.3h-3.9c-1.3,0-2.5-0.1-3.8-0.1l-0.8-0.1l-2-0.3l-0.8-0.1c-1.3-0.1-2.5-0.4-3.8-0.7l-0.6-0.1l-0.4-0.1
	l-0.7-0.1l-1-0.3l-1.4-0.3c-1.1-0.3-2.2-0.7-3.2-1.1l-0.1-0.1l-0.4-0.1l-0.6-0.1l-0.3-0.1c-2-0.7-3.8-1.7-5.6-2.7
	c-7.7-4.5-11.9-10.3-11.9-16.8v-7.6l-12.6,7.3c-0.4,0.3-1.1,0.3-1.5,0l-9-5.3L41,130.7c0,0.6-0.4,1.1-1,1.4
	C39.6,132.4,39.5,132.4,39.4,132.4z"/>
<path class="st0" d="M141.3,97.4c-1.1,0.4-2.2,0.7-3.5,1.1c-1.3,0.4-2.7,0.8-4.1,1.1l-2.4,0.6c-1.1,0.3-2.2,0.4-3.4,0.7
	c-2.1,0.4-4.1,0.8-6.2,1.1l-0.1,47.8h0.3v0.3c1.1-0.1,2.1-0.3,3.1-0.6c1.8-0.3,3.6-0.7,5.3-1.1c0.6-0.1,1.1-0.1,1.7-0.3
	c2.5-0.6,5-1.3,7.4-2.1l1.5-0.4v-0.3l0,0L141.3,97.4z"/>
<path class="st0" d="M122.2,151.7c-0.4,0-0.7-0.1-1-0.4l-0.1-0.1l-0.1-0.1c-0.3-0.3-0.6-0.7-0.6-1.1l0.1-47.8c0-0.7,0.6-1.4,1.3-1.5
	c2.1-0.3,4.2-0.7,6.2-1.1l0.6-0.1c0.8-0.1,1.8-0.4,2.7-0.6c0.8-0.1,1.5-0.4,2.2-0.6c1.4-0.3,2.7-0.7,4.1-1.1l0.7-0.3
	c0.8-0.3,1.8-0.6,2.7-0.8c0.8-0.3,1.7,0.1,2,1c0,0.1,0.1,0.3,0.1,0.4l-0.1,47.8c0,0.1,0,0.3,0,0.4c0,0.7-0.4,1.3-1.1,1.4l-1.5,0.6
	c-2.4,0.7-4.8,1.4-7.6,2.1l-1,0.1l-0.7,0.1l-0.3,0.1c-1.7,0.4-3.4,0.8-5.2,1.1L122.2,151.7L122.2,151.7z M123.6,103.4l-0.1,45
	l1.7-0.3c1.7-0.3,3.4-0.7,5-1.1h0.3l0.7-0.1l0.8-0.1c2.7-0.7,5-1.3,7.3-2.1l0.4-0.1l0.1-45l-0.7,0.1l-0.7,0.3
	c-1.4,0.4-2.8,0.8-4.2,1.1l-2.4,0.6c-1,0.1-1.8,0.4-2.8,0.6l-0.6,0.1C126.9,102.7,125.2,103.2,123.6,103.4z"/>
<polygon class="st0" points="156.3,106.4 156.1,154.2 141.2,145.7 141.3,97.8 "/>
<path class="st0" d="M156.1,155.7c-0.3,0-0.6-0.1-0.8-0.1l-15-8.7c-0.4-0.3-0.7-0.8-0.7-1.3l0.1-47.8c0-0.6,0.3-1,0.8-1.3
	c0.4-0.3,1.1-0.3,1.5,0l15,8.7c0.6,0.3,0.8,0.8,0.7,1.4l-0.1,47.8C157.5,155.2,157,155.9,156.1,155.7L156.1,155.7z M142.7,144.7
	l11.9,6.9l0.1-44.3l-11.9-6.9L142.7,144.7z"/>
<polygon class="st1" points="182.9,91 182.7,138.8 156.1,154.2 156.3,106.4 "/>
<path class="st0" d="M156.1,155.7c-0.8,0-1.5-0.7-1.5-1.5l0.1-47.8c0-0.6,0.3-1,0.7-1.3L182,89.6c0.4-0.3,1.1-0.3,1.5,0
	c0.6,0.3,0.8,0.8,0.7,1.4l-0.1,47.8c0,0.6-0.3,1-0.8,1.3l-26.6,15.5C156.6,155.7,156.3,155.7,156.1,155.7z M157.7,107.4l-0.1,44.3
	l23.6-13.7l0.1-44.3L157.7,107.4z"/>
<polygon class="st1" points="50.7,106.4 50.5,154.2 23.7,138.8 23.8,91 "/>
<path class="st0" d="M50.5,155.7c-0.3,0-0.6-0.1-0.8-0.1l-26.9-15.5c-0.4-0.3-0.7-0.8-0.7-1.3L22.3,91c0-0.6,0.3-1,0.7-1.3
	c0.4-0.3,1.1-0.3,1.5,0l26.9,15.4c0.4,0.3,0.7,0.8,0.8,1.3l-0.1,47.8c0,0.6-0.3,1.1-0.8,1.4C51,155.7,50.8,155.7,50.5,155.7z
	 M25.2,137.8L49,151.6l0.1-44.3L25.4,93.5L25.2,137.8z"/>
<polygon class="st0" points="65.5,97.8 65.4,145.7 50.5,154.2 50.7,106.4 "/>
<path class="st0" d="M50.5,155.7c-0.3,0-0.6-0.1-0.8-0.1c-0.4-0.3-0.7-0.8-0.7-1.3l0.1-47.8c0-0.6,0.3-1,0.8-1.3l14.8-8.7
	c0.7-0.4,1.7-0.1,2.1,0.6c0.1,0.3,0.1,0.6,0.1,0.8l-0.1,47.7c0,0.6-0.3,1-0.7,1.3l-14.8,8.7C51,155.7,50.8,155.7,50.5,155.7z
	 M52.2,107.4l-0.1,44.3l11.7-6.9l0.1-44.3L52.2,107.4z"/>
<path class="st0" d="M84.5,102.3c-2.2-0.3-4.3-0.7-6.4-1.1c-2.7-0.6-5.2-1.1-7.7-2c-1.7-0.4-3.2-1-4.9-1.5l-0.1,47.8
	c1.5,0.6,3.2,1,4.9,1.5c2.5,0.7,5,1.4,7.7,1.8c2.1,0.4,4.3,0.8,6.4,1.1l0.3-35.7L84.5,102.3z"/>
<path class="st0" d="M84.4,151.7h-0.3c-2.2-0.3-4.5-0.7-6.6-1.1c-2.7-0.6-5.3-1.3-7.8-2c-1.7-0.6-3.4-1-4.9-1.5
	c-0.6-0.1-1-0.7-1-1.4L64,97.8c0-0.4,0.3-1,0.7-1.3c0.4-0.3,1-0.4,1.4-0.1c1.5,0.6,3.2,1,4.8,1.5c2.5,0.7,5,1.3,7.6,1.8
	c2.1,0.4,4.2,0.8,6.4,1.1c0.7,0.1,1.3,0.7,1.3,1.5v12.2l-0.3,35.7c0,0.4-0.1,0.8-0.6,1.1C85.1,151.6,84.7,151.7,84.4,151.7z
	 M66.9,144.6c1.3,0.4,2.5,0.8,3.8,1.1c2.5,0.7,5,1.3,7.6,1.8c1.5,0.3,3.1,0.6,4.6,0.8l0.1-33.8v-10.9c-1.8-0.3-3.5-0.6-5.3-1
	c-2.7-0.6-5.3-1.3-7.8-2l-2.9-0.8V144.6z"/>
<polygon class="st1" points="122.3,114.6 122.2,162.3 84.4,162.3 84.5,114.6 "/>
<path class="st0" d="M122.2,163.9H84.4c-0.8,0-1.4-0.6-1.5-1.4l0.1-47.8c0-0.8,0.7-1.5,1.5-1.5h37.8c0.4,0,0.8,0.1,1.1,0.4
	c0.3,0.3,0.4,0.7,0.4,1.1l-0.1,47.8C123.7,163.3,123,163.9,122.2,163.9z M85.9,160.8h34.8l0.1-44.8H86.1L85.9,160.8z"/>
<path class="st1" d="M141.5,97.8c-6.3,2.1-12.7,3.8-19.3,4.6l-0.1,12.2H85.1v-12.2c-6.6-1-13.1-2.5-19.4-4.6l-15,8.7L24.5,91.4
	l14.8-8.7c-3.4-3.2-6.2-7-8.1-11.2l-21-0.1L10.1,50h21c2-4.2,4.6-8,8-11.2l-14.8-8.7l26-15.1l14.8,8.5c6.3-2.1,12.7-3.6,19.3-4.6
	l0.1-12.2h36.8V19c6.6,1,13.1,2.5,19.4,4.6l15-8.5l26.2,15.1l-14.8,8.5c3.4,3.2,6.2,7,8.1,11.2l21,0.1l0.1,21.4h-21
	c-2,4.2-4.6,8-8,11.2l14.8,8.7l-26,15.1L141.5,97.8z M76.8,76.2c14.7,8.5,38.6,8.5,53.1,0s14.5-22.2-0.1-30.8
	c-14.7-8.5-38.6-8.5-53.1,0S62,67.6,76.8,76.2"/>
<path class="st0" d="M122,116.2H85.2c-0.8,0-1.5-0.7-1.5-1.5l0,0v-10.9c-6-1-12-2.4-17.8-4.3l-14.3,8.3c-0.4,0.3-1.1,0.3-1.5,0
	L24,92.5c-0.4-0.3-0.7-0.8-0.7-1.3c0-0.6,0.3-1,0.7-1.3l13-7.6c-2.7-2.8-4.9-5.9-6.6-9.4l-20.1-0.1c-0.8,0-1.5-0.7-1.5-1.5l0,0
	L8.6,50c0-0.8,0.7-1.5,1.5-1.5l0,0h20c1.7-3.5,3.8-6.6,6.4-9.4l-13.1-7.7c-0.4-0.3-0.7-0.8-0.7-1.3c0-0.6,0.3-1,0.7-1.3l26-15.1
	c0.4-0.3,1.1-0.3,1.5,0L65.2,22c5.7-2,11.6-3.4,17.6-4.3L83,6.8c0-0.8,0.7-1.5,1.5-1.5h36.8c0.8,0,1.5,0.7,1.5,1.5v10.8
	c6,1,11.9,2.4,17.8,4.3l14.4-8.3c0.4-0.3,1.1-0.3,1.5,0l26.2,15.1c0.4,0.3,0.7,0.8,0.8,1.3c0,0.6-0.3,1.1-0.8,1.4l-13,7.6
	c2.7,2.8,4.9,5.9,6.6,9.4l20.1,0.1c0.8,0,1.5,0.7,1.5,1.5l0.1,21.4c0,0.8-0.7,1.5-1.5,1.5l0,0h-20c-1.7,3.5-3.8,6.6-6.4,9.4
	l13.1,7.7c0.4,0.3,0.7,0.8,0.7,1.3c0,0.6-0.3,1-0.7,1.3l-26.2,15.2c-0.4,0.3-1.1,0.3-1.5,0l-14.3-8.3c-5.7,2-11.7,3.4-17.8,4.3
	l-0.1,10.9C123.4,115.5,122.9,116.2,122,116.2z M86.6,113.2h33.8l0.1-10.6c0-0.7,0.6-1.4,1.3-1.5c6.4-1,12.9-2.5,19.2-4.6
	c0.4-0.1,0.8-0.1,1.3,0.1l14.1,8.1l22.9-13.3l-12.4-7.3c-0.4-0.3-0.7-0.7-0.7-1.1c0-0.4,0.1-1,0.4-1.3c3.2-3.1,5.7-6.7,7.6-10.8
	c0.3-0.6,0.8-0.8,1.4-0.8h19.3l-0.1-18.3l-19.6-0.1c-0.6,0-1.1-0.4-1.4-0.8c-2-4.1-4.5-7.7-7.8-10.8c-0.6-0.6-0.6-1.5,0-2.1
	c0.1-0.1,0.3-0.1,0.3-0.3l12.6-7.3L155.7,17l-14.1,8.1c-0.4,0.3-0.8,0.3-1.3,0.1c-6.3-2.1-12.6-3.6-19.2-4.6
	c-0.7-0.1-1.3-0.7-1.3-1.5l-0.1-10.6H85.9l-0.1,10.6c0,0.7-0.6,1.4-1.3,1.5c-6.4,1-12.9,2.5-19,4.6c-0.4,0.1-0.8,0.1-1.3-0.1
	L50.1,17L27.2,30.3l12.4,7.4c0.4,0.3,0.7,0.7,0.7,1.1s-0.1,1-0.4,1.3c-3.2,3.1-5.7,6.7-7.6,10.8c-0.3,0.6-0.8,1-1.4,0.8H11.7
	L11.8,70l19.6,0.1c0.6,0,1.1,0.3,1.4,0.8c2,4.1,4.5,7.7,7.8,10.8c0.3,0.3,0.6,0.8,0.4,1.3c0,0.4-0.3,0.8-0.7,1.1l-12.4,7.3L51,104.7
	l14.1-8.1c0.4-0.3,0.8-0.3,1.3-0.1c6.3,2.1,12.6,3.6,19.2,4.6c0.7,0.1,1.3,0.7,1.3,1.5L86.6,113.2z M103.4,84
	c-9.9,0-19.9-2.2-27.4-6.6l0,0c-7.6-4.3-11.9-10.3-11.9-16.8S68.2,48.3,75.7,44c15-8.7,39.6-8.7,54.7,0c7.6,4.3,11.9,10.3,11.9,16.8
	s-4.2,12.3-11.6,16.6C123.3,81.8,113.3,84,103.4,84L103.4,84z M77.5,74.9c14.3,8.3,37.5,8.3,51.6,0c6.6-3.8,10.2-8.8,10.1-14
	c-0.1-5.2-3.6-10.3-10.3-14.1c-14.3-8.3-37.5-8.3-51.6,0c-6.6,3.8-10.2,8.8-10.1,14C67.3,66,70.8,71,77.5,74.9z"/>
<path class="st0" d="M76.8,76.2c14.7,8.5,38.6,8.5,53.1,0s14.5-22.2-0.1-30.8c-14.7-8.5-38.6-8.5-53.1,0S62.2,67.6,76.8,76.2"/>
<g>
	<g>
		<defs>
			<rect id="SVGID_1_" x="115" y="27.2" width="16.5" height="66"/>
		</defs>
		<clipPath id="SVGID_00000015338437444327550490000016625880693643697563_">
			<use xlink:href="#SVGID_1_"  style="overflow:visible;"/>
		</clipPath>
		<g style="clip-path:url(#SVGID_00000015338437444327550490000016625880693643697563_);">
			<path class="st1" d="M76.8,76.2c14.7,8.5,38.6,8.5,53.1,0s14.5-22.2-0.1-30.8c-14.7-8.5-38.6-8.5-53.1,0S62.2,67.6,76.8,76.2"/>
			<path class="st0" d="M103.6,84c-9.9,0-19.9-2.2-27.4-6.6l0,0c-7.7-4.3-11.9-10.3-11.9-16.8S68.4,48.3,75.9,44
				c15.1-8.7,39.6-8.7,54.7,0c7.6,4.3,11.9,10.3,11.9,16.8s-4.1,12.3-11.6,16.6C123.3,81.8,113.5,84,103.6,84z M103.3,40.5
				c-9.4,0-18.6,2.1-25.7,6.2c-6.6,3.8-10.2,8.8-10.2,14S71,71,77.7,74.8l0,0c14.3,8.3,37.5,8.3,51.6,0c6.6-3.8,10.1-8.8,10.1-14
				s-3.6-10.3-10.3-14.1C122,42.6,112.6,40.5,103.3,40.5z"/>
		</g>
	</g>
</g>
</svg>
