<?xml version="1.0" encoding="utf-8"?>
<!-- Generator: Adobe Illustrator 27.9.0, SVG Export Plug-In . SVG Version: 6.00 Build 0)  -->
<svg version="1.1"
	 id="svg3355" xmlns:rdf="http://www.w3.org/1999/02/22-rdf-syntax-ns#" xmlns:svg="http://www.w3.org/2000/svg" xmlns:dc="http://purl.org/dc/elements/1.1/" xmlns:sodipodi="http://sodipodi.sourceforge.net/DTD/sodipodi-0.dtd" xmlns:cc="http://creativecommons.org/ns#" xmlns:inkscape="http://www.inkscape.org/namespaces/inkscape" inkscape:version="1.2.2 (b0a8486, 2022-12-01)" sodipodi:docname="logo.svg"
	 xmlns="http://www.w3.org/2000/svg" xmlns:xlink="http://www.w3.org/1999/xlink" x="0px" y="0px" viewBox="0 0 1013.3 189.1"
	 style="enable-background:new 0 0 1013.3 189.1;" xml:space="preserve">
<style type="text/css">
	.st0{fill:#1BA89C;}
	.st1{fill:#117A71;}
	.st2{fill:#343A40;}
</style>
<g id="g3373" transform="translate(395.813,350.585)">
	<path id="path3375" class="st0" d="M-369.1-214.9l7.8-17.5l17-5.3l12.6-59.5l30.6,34.8l29.9-34
		l14,50.1l9.2-2.1l18.8-37.6l13.5-10.4c-15.1-32-47.8-54-85.5-54c-52.2,0-94.5,42.4-94.5,94.5c0,15.5,3.8,30.1,10.4,43.1
		L-369.1-214.9z"/>
</g>
<g id="g3377" transform="translate(514.7026,401.7451)">
	<path id="path3379" class="st1" d="M-339.4-330l-19.9,40l-24.8,5.8l-11.2-40.5l-24.6,28.1
		l-24.5-27.5l-9.4,44.1l-18.4,5.6l-8.2,18.6l-17.8,2.1c17,24.8,45.6,41,77.9,41c52.2,0,94.6-42.4,94.6-94.6
		c0-10.4-1.6-20.2-4.8-29.6L-339.4-330z"/>
</g>
<g id="g3381" transform="translate(607.1494,363.6182)">
	<path id="path3383" class="st2" d="M-300.5-257.2h-19v-36.5l-17.1,21.2h-1.5l-17.2-21.2v36.5
		h-18.4v-63.1h17.2l19.4,23.7l19.4-23.7h17.2V-257.2z"/>
</g>
<path id="path3385" class="st2" d="
	M341.7,106.4h-19V43.3h19V106.4L341.7,106.4z"/>
<g id="g3387" transform="translate(674.8364,366.5996)">
	<path id="path3389" class="st2" d="M-260.8-265c-2.6,1.3-5.3,2.4-8,3.3c-2.7,0.8-5.5,1.4-8.2,1.8
		c-2.7,0.3-5.6,0.5-8.7,0.5c-5.5,0-10.4-0.8-14.8-2.3s-8.1-3.7-11.3-6.7s-5.5-6.4-7.1-10.3c-1.6-3.9-2.4-8.3-2.4-13.1
		c0-5.4,1-10.2,2.9-14.3c1.9-4.1,4.5-7.5,7.9-10.2s7.2-4.7,11.5-5.9c4.3-1.3,8.9-2,13.7-2c7.1,0,15.2,1.6,24.3,4.8v16.7
		c-3.1-2-6.3-3.5-9.2-4.8c-3.1-1.3-6.6-2-10.7-2c-3.6,0-7.1,0.8-10.3,2.2c-3.2,1.4-5.7,3.5-7.7,6.3c-2,2.7-3,5.8-3,9.4
		c0,3.2,0.9,6.1,2.5,8.8s4.1,4.7,7,6.4c3,1.5,6.5,2.3,10.2,2.3c3.1,0,5.9-0.3,8.7-1.1c2.7-0.8,5-1.5,6.9-2.5c2-0.9,3.8-2,5.8-3.2
		V-265z"/>
</g>
<g id="g3391" transform="translate(705.082,390.7964)">
	<path id="path3393" class="st2" d="M-243.1-327.5c0-3-1-4.9-2.9-6.1s-5-1.8-9.3-1.8h-3.9v15.4
		h4.1c4.6,0,7.8-0.5,9.5-1.5C-243.9-322.7-243.1-324.6-243.1-327.5 M-217.3-284.4h-20.4l-4.9-11.2c-1.9-4.1-3.5-7.1-4.9-9
		c-1.4-1.9-2.9-3.1-4.3-3.6s-3.2-0.8-5.4-0.8h-2.1v24.6h-19v-63.1h32.4c5.3,0,9.5,1.1,12.8,3.2c3.3,2.1,5.7,4.7,7.2,7.7
		c1.4,3.1,2.2,5.9,2.2,8.7c0,3.2-0.7,5.9-1.9,8.1c-1.2,2.2-2.5,3.8-3.8,4.8c-1.3,1-2.9,2-4.6,2.9c2.1,1.2,3.7,2.6,5,4.2
		c1.3,1.6,3.1,4.9,5.4,9.9C-223.6-298-217.3-284.4-217.3-284.4z"/>
</g>
<g id="g3395" transform="translate(757.1162,383.5142)">
	<path id="path3397" class="st2" d="M-212.6-308.6c0-2.4-0.3-4.5-1.1-6.5c-0.7-2-1.8-3.6-3.2-5
		c-1.4-1.4-3.2-2.5-5.2-3.4c-2.1-0.8-4.4-1.2-7-1.2c-5,0-9.1,1.5-12,4.5c-3,3-4.4,6.9-4.4,11.7s1.4,8.8,4.4,11.7c3,3,6.9,4.5,12,4.5
		c3.5,0,6.5-0.7,8.9-2.1c2.4-1.4,4.3-3.3,5.6-5.7C-213.2-302.7-212.6-305.5-212.6-308.6 M-193.2-308.6c0,5.9-1.3,11.3-4.1,16.2
		s-6.8,8.9-12.1,11.7c-5.4,3-11.8,4.4-19.6,4.4c-7.8,0-14.4-1.5-19.7-4.5c-5.4-3.1-9.4-7-12.1-12s-3.9-10.3-3.9-15.9
		c0-5.7,1.3-11,3.9-15.9s6.6-8.9,12.1-12c5.4-3.1,12.1-4.5,19.9-4.5c5.8,0,11,0.9,15.6,2.6s8.3,4.1,11.3,7c3,3,5.2,6.4,6.7,10.3
		C-193.9-317.1-193.2-313-193.2-308.6"/>
</g>
<g id="g3399" transform="translate(822.9971,363.6182)">
	<path id="path3401" class="st2" d="M-174-257.2h-19v-36.5l-17.2,21.2h-1.5l-17.1-21.2v36.5h-18.4
		v-63.1h17.2l19.3,23.7l19.4-23.7h17.2v63.1H-174z"/>
</g>
<g id="g3403" transform="translate(862.9902,363.6182)">
	<path id="path3405" class="st2" d="M-150.6-257.2h-47.5v-63.1h46.7v12.6h-27.7v11.6h26.4v12.6
		h-26.4v13.5h28.5L-150.6-257.2L-150.6-257.2z"/>
</g>
<g id="g3407" transform="translate(909.1182,393.6919)">
	<path id="path3409" class="st2" d="M-123.5-334.9h-23.1v47.7h-18.9v-47.7h-23.1v-15.4h65.1
		V-334.9z"/>
</g>
<g id="g3411" transform="translate(946.0723,363.6182)">
	<path id="path3413" class="st2" d="M-101.8-257.2h-47.5v-63.1h46.7v12.6h-27.7v11.6h26.4v12.6
		h-26.4v13.5h28.5V-257.2z"/>
</g>
<g id="g3415" transform="translate(976.29,390.7964)">
	<path id="path3417" class="st2" d="M-84.1-327.5c0-3-1-4.9-2.9-6.1c-1.9-1.2-5-1.8-9.3-1.8h-3.9
		v15.4h4.1c4.6,0,7.8-0.5,9.5-1.5C-85-322.7-84.1-324.6-84.1-327.5 M-58.3-284.4h-20.4l-4.9-11.2c-1.9-4.1-3.5-7.1-4.9-9
		c-1.4-1.9-2.9-3.1-4.3-3.6c-1.4-0.5-3.2-0.8-5.4-0.8h-2.1v24.6h-19v-63.1H-87c5.3,0,9.5,1.1,12.8,3.2c3.3,2.1,5.7,4.7,7.2,7.7
		c1.4,3.1,2.2,5.9,2.2,8.7c0,3.2-0.7,5.9-1.9,8.1c-1.2,2.2-2.5,3.8-3.8,4.8c-1.3,1-2.9,2-4.6,2.9c2.1,1.2,3.7,2.6,5,4.2
		c1.3,1.6,3.1,4.9,5.4,9.9C-64.7-298-58.3-284.4-58.3-284.4z"/>
</g>
<g>
	<path class="st2" d="M353.9,126.9c1.9,1.9,2.9,4.5,2.9,7.7v15.2H351v-3c-0.9,1.1-2.1,2-3.5,2.6c-1.4,0.6-2.9,1-4.4,1
		c-1.8,0-3.4-0.3-4.8-1c-1.4-0.7-2.5-1.6-3.3-2.8c-0.8-1.2-1.2-2.6-1.2-4.2c0-1.6,0.5-3.1,1.4-4.3c0.9-1.3,2.1-2.3,3.7-3
		s3.3-1.1,5.2-1.1c2.2,0,4.6,0.4,7,1.3v-0.6c0-1.7-0.5-3-1.5-4.1c-1-1.1-2.5-1.6-4.7-1.6c-2,0-4.3,0.6-6.8,1.9l-2-4.1
		c3.6-1.8,6.9-2.6,10-2.6C349.4,124,352,125,353.9,126.9z M348.7,144.9c1.3-0.7,2.1-1.8,2.4-3V139c-2-0.6-4-0.9-6.1-0.9
		c-1.5,0-2.8,0.4-3.9,1.1c-1,0.8-1.6,1.7-1.6,2.9s0.5,2.1,1.4,2.8c0.9,0.7,2.1,1.1,3.6,1.1C346,146.1,347.4,145.7,348.7,144.9z"/>
	<path class="st2" d="M384.3,125.7c1.8,1.1,3.1,2.7,4.1,4.7c1,2,1.5,4.3,1.5,6.8s-0.5,4.8-1.5,6.8c-1,2-2.4,3.6-4.1,4.7
		s-3.7,1.7-5.9,1.7c-1.8,0-3.5-0.4-5-1.2c-1.5-0.8-2.7-1.9-3.8-3.3v12.3h-5.9v-33.6h5.9v3.9c1-1.4,2.3-2.5,3.8-3.3
		c1.5-0.8,3.2-1.2,5-1.2C380.6,124,382.6,124.6,384.3,125.7z M382,143c1.4-1.5,2-3.5,2-5.8c0-2.4-0.7-4.3-2-5.8
		c-1.4-1.5-3.1-2.3-5.2-2.3c-2.1,0-3.8,0.8-5.1,2.3c-1.3,1.5-2,3.5-2,5.8c0,2.4,0.7,4.3,2,5.8c1.3,1.5,3,2.3,5.1,2.3
		C378.9,145.3,380.6,144.6,382,143z"/>
	<path class="st2" d="M416.2,125.7c1.8,1.1,3.1,2.7,4.1,4.7c1,2,1.5,4.3,1.5,6.8s-0.5,4.8-1.5,6.8c-1,2-2.4,3.6-4.1,4.7
		s-3.7,1.7-5.9,1.7c-1.8,0-3.5-0.4-5-1.2c-1.5-0.8-2.7-1.9-3.8-3.3v12.3h-5.9v-33.6h5.9v3.9c1-1.4,2.3-2.5,3.8-3.3
		c1.5-0.8,3.2-1.2,5-1.2C412.5,124,414.5,124.6,416.2,125.7z M413.9,143c1.4-1.5,2-3.5,2-5.8c0-2.4-0.7-4.3-2-5.8
		c-1.4-1.5-3.1-2.3-5.2-2.3c-2.1,0-3.8,0.8-5.1,2.3c-1.3,1.5-2,3.5-2,5.8c0,2.4,0.7,4.3,2,5.8c1.3,1.5,3,2.3,5.1,2.3
		C410.8,145.3,412.5,144.6,413.9,143z"/>
	<path class="st2" d="M427.6,115.7h5.9v34.1h-5.9V115.7z"/>
	<path class="st2" d="M441.5,119.8c-0.7-0.7-1-1.5-1-2.4c0-0.9,0.3-1.7,1-2.4c0.7-0.7,1.5-1,2.4-1c0.9,0,1.7,0.3,2.4,1
		c0.7,0.7,1,1.5,1,2.4c0,0.9-0.3,1.7-1,2.4c-0.7,0.7-1.5,1-2.4,1C442.9,120.8,442.1,120.5,441.5,119.8z M440.9,124.6h5.9v25.2h-5.9
		V124.6z"/>
	<path class="st2" d="M459.1,148.6c-2.1-1.2-3.7-2.8-4.9-4.9c-1.2-2-1.9-4.2-1.9-6.6s0.6-4.5,1.9-6.5c1.2-2,2.9-3.6,5-4.8
		c2.1-1.2,4.3-1.8,6.7-1.8c1.9,0,3.6,0.4,5.3,1.1c1.6,0.7,3.1,1.7,4.3,3l-4,3.5c-0.7-0.8-1.5-1.4-2.5-1.9c-1-0.5-2-0.7-3.1-0.7
		c-1.4,0-2.6,0.4-3.8,1.1c-1.2,0.7-2.1,1.7-2.8,3c-0.7,1.3-1,2.6-1,4c0,1.5,0.3,2.8,1,4.1c0.7,1.3,1.6,2.2,2.8,3s2.4,1.1,3.8,1.1
		c1.1,0,2.1-0.2,3.1-0.7c1-0.5,1.9-1.1,2.6-1.9l4,3.5c-1.3,1.3-2.7,2.4-4.4,3.1s-3.4,1.1-5.4,1.1
		C463.4,150.4,461.2,149.8,459.1,148.6z"/>
	<path class="st2" d="M498.3,126.9c1.9,1.9,2.9,4.5,2.9,7.7v15.2h-5.8v-3c-0.9,1.1-2.1,2-3.5,2.6c-1.4,0.6-2.9,1-4.4,1
		c-1.8,0-3.4-0.3-4.8-1c-1.4-0.7-2.5-1.6-3.3-2.8s-1.2-2.6-1.2-4.2c0-1.6,0.5-3.1,1.4-4.3c0.9-1.3,2.1-2.3,3.7-3s3.3-1.1,5.2-1.1
		c2.2,0,4.6,0.4,7,1.3v-0.6c0-1.7-0.5-3-1.5-4.1s-2.5-1.6-4.7-1.6c-2,0-4.3,0.6-6.8,1.9l-2-4.1c3.6-1.8,6.9-2.6,10-2.6
		C493.7,124,496.3,125,498.3,126.9z M493,144.9c1.3-0.7,2.1-1.8,2.4-3V139c-2-0.6-4-0.9-6.1-0.9c-1.5,0-2.8,0.4-3.9,1.1
		s-1.6,1.7-1.6,2.9s0.5,2.1,1.4,2.8c0.9,0.7,2.1,1.1,3.6,1.1C490.3,146.1,491.7,145.7,493,144.9z"/>
	<path class="st2" d="M521.5,148.4c-0.7,0.6-1.6,1.1-2.5,1.5c-1,0.4-1.9,0.5-2.9,0.5c-2.1,0-3.8-0.7-5.1-2c-1.3-1.4-2-3.1-2-5.2
		v-13.6h-3.7v-4.9h3.7v-6.9h5.8v6.9h5.7v4.9h-5.7v12.9c0,0.8,0.2,1.5,0.7,2.1c0.5,0.6,1.1,0.8,1.8,0.8c0.5,0,1-0.1,1.4-0.2
		c0.4-0.2,0.8-0.4,1.1-0.7L521.5,148.4z"/>
	<path class="st2" d="M527,119.8c-0.7-0.7-1-1.5-1-2.4c0-0.9,0.3-1.7,1-2.4c0.7-0.7,1.5-1,2.4-1c0.9,0,1.7,0.3,2.4,1
		c0.7,0.7,1,1.5,1,2.4c0,0.9-0.3,1.7-1,2.4c-0.7,0.7-1.5,1-2.4,1C528.4,120.8,527.6,120.5,527,119.8z M526.4,124.6h5.9v25.2h-5.9
		V124.6z"/>
	<path class="st2" d="M544.6,148.6c-2.1-1.2-3.7-2.8-4.9-4.8c-1.2-2-1.8-4.2-1.8-6.6c0-2.4,0.6-4.6,1.8-6.6c1.2-2,2.9-3.6,4.9-4.8
		c2.1-1.2,4.3-1.8,6.8-1.8s4.7,0.6,6.8,1.8s3.7,2.8,4.9,4.8c1.2,2,1.8,4.2,1.8,6.6c0,2.4-0.6,4.6-1.8,6.6c-1.2,2-2.8,3.6-4.9,4.8
		c-2.1,1.2-4.3,1.8-6.8,1.8S546.7,149.8,544.6,148.6z M555.2,144.2c1.2-0.7,2.1-1.7,2.8-3c0.7-1.3,1-2.6,1-4.1s-0.3-2.8-1-4
		c-0.7-1.2-1.6-2.2-2.8-2.9c-1.2-0.7-2.5-1.1-3.8-1.1c-1.4,0-2.7,0.4-3.9,1.1c-1.2,0.7-2.1,1.7-2.8,2.9c-0.7,1.2-1,2.6-1,4
		s0.3,2.8,1,4.1c0.7,1.3,1.6,2.2,2.8,3s2.5,1.1,3.9,1.1C552.7,145.3,554,145,555.2,144.2z"/>
	<path class="st2" d="M589,125.3c1.4,0.8,2.5,2,3.3,3.5c0.8,1.5,1.2,3.2,1.2,5v16h-5.8V135c0-1.7-0.5-3.1-1.5-4.2
		c-1-1.1-2.2-1.6-3.8-1.6c-1.7,0-3.2,0.5-4.4,1.6c-1.2,1.1-1.8,2.3-1.8,3.9v15.3h-5.9v-25.2h5.9v3.4c0.8-1.2,1.9-2.2,3.2-2.9
		c1.4-0.7,2.9-1.1,4.6-1.1C585.9,124,587.5,124.4,589,125.3z"/>
	<path class="st2" d="M618.5,148.6c-2.1-1.2-3.7-2.8-4.9-4.8c-1.2-2-1.8-4.2-1.8-6.6c0-2.4,0.6-4.6,1.8-6.6c1.2-2,2.9-3.6,4.9-4.8
		c2.1-1.2,4.3-1.8,6.8-1.8s4.7,0.6,6.8,1.8s3.7,2.8,4.9,4.8c1.2,2,1.8,4.2,1.8,6.6c0,2.4-0.6,4.6-1.8,6.6c-1.2,2-2.8,3.6-4.9,4.8
		c-2.1,1.2-4.3,1.8-6.8,1.8S620.6,149.8,618.5,148.6z M629.1,144.2c1.2-0.7,2.1-1.7,2.8-3c0.7-1.3,1-2.6,1-4.1s-0.3-2.8-1-4
		c-0.7-1.2-1.6-2.2-2.8-2.9c-1.2-0.7-2.5-1.1-3.8-1.1c-1.4,0-2.7,0.4-3.9,1.1c-1.2,0.7-2.1,1.7-2.8,2.9c-0.7,1.2-1,2.6-1,4
		s0.3,2.8,1,4.1c0.7,1.3,1.6,2.2,2.8,3s2.5,1.1,3.9,1.1C626.6,145.3,627.9,145,629.1,144.2z"/>
	<path class="st2" d="M665.1,125.7c1.8,1.1,3.1,2.7,4.1,4.7c1,2,1.5,4.3,1.5,6.8s-0.5,4.8-1.5,6.8s-2.4,3.6-4.1,4.7
		s-3.7,1.7-5.9,1.7c-1.9,0-3.6-0.4-5.2-1.3c-1.5-0.8-2.8-2-3.8-3.6v4.3h-5.9v-34.1h5.9v13.1c1-1.5,2.2-2.7,3.8-3.6
		c1.5-0.8,3.3-1.3,5.1-1.3C661.3,124,663.3,124.6,665.1,125.7z M662.8,143c1.4-1.5,2-3.5,2-5.8c0-2.4-0.7-4.3-2-5.8
		c-1.4-1.5-3.1-2.3-5.3-2.3c-2.1,0-3.8,0.8-5.1,2.3c-1.3,1.5-2,3.5-2,5.8c0,1.6,0.3,3,0.9,4.2c0.6,1.2,1.4,2.2,2.5,2.9
		c1.1,0.7,2.3,1,3.7,1C659.6,145.3,661.4,144.6,662.8,143z"/>
	<path class="st2" d="M679.2,149.4c-2-0.7-3.7-1.6-5.2-2.8l2.5-3.9c1.4,1,2.8,1.7,4.3,2.3c1.5,0.5,2.9,0.8,4.3,0.8
		c1.3,0,2.4-0.3,3.1-0.8c0.8-0.5,1.1-1.2,1.1-2.1c0-0.9-0.4-1.6-1.3-2s-2.2-0.9-4-1.4c-2.1-0.6-3.7-1.1-5-1.7
		c-1.3-0.6-2.2-1.3-2.9-2.3c-0.7-0.9-1-2.1-1-3.6c0-1.5,0.4-2.9,1.2-4.1c0.8-1.2,1.9-2.1,3.4-2.8c1.4-0.7,3.1-1,4.9-1
		c1.7,0,3.3,0.3,5,0.8c1.7,0.5,3.2,1.3,4.7,2.2l-2.3,4c-1.2-0.8-2.4-1.4-3.7-1.8s-2.5-0.7-3.6-0.7s-2.1,0.3-2.8,0.8
		c-0.7,0.5-1.1,1.2-1.1,2c0,0.6,0.2,1,0.5,1.3c0.4,0.3,0.9,0.6,1.5,0.9c0.6,0.2,1.8,0.6,3.3,1.1c1.9,0.5,3.4,1,4.6,1.6
		c1.2,0.5,2.2,1.3,3,2.3c0.8,1,1.2,2.3,1.2,3.9c0,2.4-0.9,4.3-2.7,5.8c-1.8,1.5-4.2,2.2-7.2,2.2
		C683.1,150.4,681.2,150.1,679.2,149.4z"/>
	<path class="st2" d="M715.5,144.9c1.3-0.5,2.4-1.1,3.2-1.9l3.4,3.5c-1.1,1.1-2.6,2.1-4.5,2.8c-1.9,0.7-3.9,1.1-5.7,1.1
		c-2.4,0-4.6-0.6-6.7-1.7c-2-1.1-3.6-2.7-4.8-4.7c-1.2-2-1.8-4.3-1.8-6.8c0-2.5,0.6-4.7,1.7-6.7c1.1-2,2.7-3.5,4.7-4.7
		s4.2-1.7,6.5-1.7c3.9,0,6.9,1.3,9.1,4c2.2,2.7,3.3,6.3,3.3,10.9h-19.5c0.3,2,1.1,3.6,2.5,4.9s2.9,1.8,4.9,1.8
		C712.9,145.6,714.2,145.4,715.5,144.9z M706.9,130.5c-1.3,1.1-2.1,2.6-2.5,4.5h13.7c-0.3-1.9-1-3.3-2.1-4.5
		c-1.1-1.1-2.6-1.7-4.5-1.7C709.8,128.8,708.2,129.4,706.9,130.5z"/>
	<path class="st2" d="M738.8,125.5c1.6-1,3.4-1.4,5.4-1.4v5.1c-2.7,0-4.9,0.7-6.5,2.2c-1.7,1.5-2.5,3.4-2.5,5.8v12.7h-5.9v-25.2h5.9
		v4.8C736,127.7,737.2,126.4,738.8,125.5z"/>
	<path class="st2" d="M746.4,124.6h6.3l7.3,18.3l7.2-18.3h6.3l-10.7,25.2h-5.6L746.4,124.6z"/>
	<path class="st2" d="M795.8,126.9c1.9,1.9,2.9,4.5,2.9,7.7v15.2h-5.8v-3c-0.9,1.1-2.1,2-3.5,2.6c-1.4,0.6-2.9,1-4.4,1
		c-1.8,0-3.4-0.3-4.8-1c-1.4-0.7-2.5-1.6-3.3-2.8s-1.2-2.6-1.2-4.2c0-1.6,0.5-3.1,1.4-4.3c0.9-1.3,2.1-2.3,3.7-3s3.3-1.1,5.2-1.1
		c2.2,0,4.6,0.4,7,1.3v-0.6c0-1.7-0.5-3-1.5-4.1s-2.5-1.6-4.7-1.6c-2,0-4.3,0.6-6.8,1.9l-2-4.1c3.6-1.8,6.9-2.6,10-2.6
		C791.2,124,793.8,125,795.8,126.9z M790.5,144.9c1.3-0.7,2.1-1.8,2.4-3V139c-2-0.6-4-0.9-6.1-0.9c-1.5,0-2.8,0.4-3.9,1.1
		s-1.6,1.7-1.6,2.9s0.5,2.1,1.4,2.8c0.9,0.7,2.1,1.1,3.6,1.1C787.8,146.1,789.2,145.7,790.5,144.9z"/>
	<path class="st2" d="M826.4,125.7c1.8,1.1,3.1,2.7,4.1,4.7c1,2,1.5,4.3,1.5,6.8s-0.5,4.8-1.5,6.8s-2.4,3.6-4.1,4.7
		s-3.7,1.7-5.9,1.7c-1.9,0-3.6-0.4-5.2-1.3c-1.5-0.8-2.8-2-3.8-3.6v4.3h-5.9v-34.1h5.9v13.1c1-1.5,2.2-2.7,3.8-3.6
		c1.5-0.8,3.3-1.3,5.1-1.3C822.6,124,824.6,124.6,826.4,125.7z M824.1,143c1.4-1.5,2-3.5,2-5.8c0-2.4-0.7-4.3-2-5.8
		c-1.4-1.5-3.1-2.3-5.3-2.3c-2.1,0-3.8,0.8-5.1,2.3c-1.3,1.5-2,3.5-2,5.8c0,1.6,0.3,3,0.9,4.2c0.6,1.2,1.4,2.2,2.5,2.9
		c1.1,0.7,2.3,1,3.7,1C821,145.3,822.7,144.6,824.1,143z"/>
	<path class="st2" d="M838.2,119.8c-0.7-0.7-1-1.5-1-2.4c0-0.9,0.3-1.7,1-2.4c0.7-0.7,1.5-1,2.4-1c0.9,0,1.7,0.3,2.4,1
		c0.7,0.7,1,1.5,1,2.4c0,0.9-0.3,1.7-1,2.4c-0.7,0.7-1.5,1-2.4,1C839.7,120.8,838.9,120.5,838.2,119.8z M837.7,124.6h5.9v25.2h-5.9
		V124.6z"/>
	<path class="st2" d="M851,115.7h5.9v34.1H851V115.7z"/>
	<path class="st2" d="M864.9,119.8c-0.7-0.7-1-1.5-1-2.4c0-0.9,0.3-1.7,1-2.4c0.7-0.7,1.5-1,2.4-1c0.9,0,1.7,0.3,2.4,1
		c0.7,0.7,1,1.5,1,2.4c0,0.9-0.3,1.7-1,2.4c-0.7,0.7-1.5,1-2.4,1C866.4,120.8,865.6,120.5,864.9,119.8z M864.4,124.6h5.9v25.2h-5.9
		V124.6z"/>
	<path class="st2" d="M891.2,148.4c-0.7,0.6-1.6,1.1-2.5,1.5c-1,0.4-1.9,0.5-2.9,0.5c-2.1,0-3.8-0.7-5.1-2c-1.3-1.4-2-3.1-2-5.2
		v-13.6h-3.7v-4.9h3.7v-6.9h5.8v6.9h5.7v4.9h-5.7v12.9c0,0.8,0.2,1.5,0.7,2.1c0.5,0.6,1.1,0.8,1.8,0.8c0.5,0,1-0.1,1.4-0.2
		c0.4-0.2,0.8-0.4,1.1-0.7L891.2,148.4z"/>
	<path class="st2" d="M897.5,158.3c-1-0.2-1.9-0.6-2.6-1l1.3-4.3c1.1,0.6,2.2,0.9,3.2,0.9c1.5,0,2.6-0.6,3.2-1.7l1.1-2.2L893,124.6
		h6.3l7.4,18.8l6.9-18.8h6.1l-10.7,27c-1.9,4.6-4.7,7-8.6,7C899.4,158.6,898.5,158.5,897.5,158.3z"/>
</g>
</svg>
